<?xml version="1.0" encoding="utf-8"?>
<!-- Generator: Adobe Illustrator 16.0.0, SVG Export Plug-In . SVG Version: 6.00 Build 0)  -->
<!DOCTYPE svg PUBLIC "-//W3C//DTD SVG 1.1//EN" "http://www.w3.org/Graphics/SVG/1.1/DTD/svg11.dtd">
<svg version="1.1" id="Layer_1" xmlns="http://www.w3.org/2000/svg" xmlns:xlink="http://www.w3.org/1999/xlink" x="0px" y="0px"
	 width="24px" height="24px" viewBox="0 0 24 24" enable-background="new 0 0 24 24" xml:space="preserve">
<path fill="#FFFFFF" d="M20.721,15.907c-0.926-0.925-2.072-2.074-2.072-6.566c0-3.299-2.404-6.037-5.555-6.559
	c0.154-0.222,0.236-0.485,0.236-0.755c0-0.733-0.596-1.329-1.33-1.329s-1.33,0.596-1.33,1.329c0,0.28,0.087,0.54,0.235,0.755
	c-3.151,0.521-5.554,3.26-5.554,6.559c0,4.492-1.148,5.642-2.072,6.566c-1.254,1.254-0.365,3.405,1.41,3.405h4.65
	c0,1.469,1.191,2.659,2.66,2.659s2.658-1.19,2.658-2.659h4.65C21.082,19.312,21.977,17.163,20.721,15.907z"/>
</svg>