<?xml version="1.0" encoding="UTF-8"?>
<!DOCTYPE svg PUBLIC "-//W3C//DTD SVG 1.1//EN" "http://www.w3.org/Graphics/SVG/1.1/DTD/svg11.dtd">
<svg xmlns="http://www.w3.org/2000/svg" version="1.1" width="1930px" height="1950px" style="shape-rendering:geometricPrecision; text-rendering:geometricPrecision; image-rendering:optimizeQuality; fill-rule:evenodd; clip-rule:evenodd" xmlns:xlink="http://www.w3.org/1999/xlink">
<g><path style="opacity:1" fill="#47afdd" d="M 373.5,174.5 C 767.833,174.333 1162.17,174.5 1556.5,175C 1633.51,181.901 1692.68,217.734 1734,282.5C 1752.39,313.664 1762.72,347.331 1765,383.5C 1765.67,777.833 1765.67,1172.17 1765,1566.5C 1758.1,1643.51 1722.27,1702.68 1657.5,1744C 1626.34,1762.39 1592.67,1772.72 1556.5,1775C 1162.17,1775.67 767.833,1775.67 373.5,1775C 296.485,1768.1 237.319,1732.27 196,1667.5C 177.613,1636.34 167.279,1602.67 165,1566.5C 164.007,1168.15 164.34,769.819 166,371.5C 175.33,303.299 208.163,249.799 264.5,211C 297.855,189.715 334.189,177.548 373.5,174.5 Z"/></g>
<g><path style="opacity:1" fill="#fefefe" d="M 1459.5,531.5 C 1490.77,530.28 1509.61,544.947 1516,575.5C 1516.79,586.536 1516.45,597.536 1515,608.5C 1457.56,878.143 1400.23,1147.81 1343,1417.5C 1331.34,1472.25 1300.5,1487.08 1250.5,1462C 1164,1398.17 1077.5,1334.33 991,1270.5C 944.47,1316.03 897.637,1361.2 850.5,1406C 835.645,1416.04 819.312,1419.37 801.5,1416C 793.325,1414.83 787.825,1410.33 785,1402.5C 750.736,1295.71 716.07,1189.04 681,1082.5C 595.994,1055.28 510.827,1028.44 425.5,1002C 412.112,997.904 401.612,990.071 394,978.5C 390.508,967.655 392.508,957.989 400,949.5C 412.591,937.447 427.091,928.28 443.5,922C 782.097,791.307 1120.76,661.14 1459.5,531.5 Z"/></g>
<g><path style="opacity:1" fill="#47afdd" d="M 1300.5,701.5 C 1304.18,701.335 1307.85,701.501 1311.5,702C 1319.86,704.22 1321.69,709.054 1317,716.5C 1155.97,862.537 994.632,1008.2 833,1153.5C 826.447,1219.47 820.114,1285.47 814,1351.5C 782.494,1255.65 750.994,1159.82 719.5,1064C 904.833,947 1090.17,830 1275.5,713C 1283.43,708.034 1291.76,704.2 1300.5,701.5 Z"/></g>
</svg>
