<?xml version="1.0" encoding="UTF-8"?>
<!DOCTYPE svg PUBLIC "-//W3C//DTD SVG 1.1//EN" "http://www.w3.org/Graphics/SVG/1.1/DTD/svg11.dtd">
<svg xmlns="http://www.w3.org/2000/svg" version="1.1" width="1930px" height="1950px" style="shape-rendering:geometricPrecision; text-rendering:geometricPrecision; image-rendering:optimizeQuality; fill-rule:evenodd; clip-rule:evenodd" xmlns:xlink="http://www.w3.org/1999/xlink">
<g><path style="opacity:1" fill="#0078ff" d="M 373.5,174.5 C 767.833,174.333 1162.17,174.5 1556.5,175C 1633.51,181.901 1692.68,217.734 1734,282.5C 1752.39,313.664 1762.72,347.331 1765,383.5C 1765.67,777.833 1765.67,1172.17 1765,1566.5C 1758.1,1643.51 1722.27,1702.68 1657.5,1744C 1626.34,1762.39 1592.67,1772.72 1556.5,1775C 1162.17,1775.67 767.833,1775.67 373.5,1775C 296.485,1768.1 237.319,1732.27 196,1667.5C 177.613,1636.34 167.279,1602.67 165,1566.5C 164.007,1168.15 164.34,769.819 166,371.5C 175.33,303.299 208.163,249.799 264.5,211C 297.855,189.715 334.189,177.548 373.5,174.5 Z"/></g>
<g><path style="opacity:1" fill="#fefeff" d="M 868.5,1107.5 C 869.5,949.001 869.833,790.334 869.5,631.5C 928.833,631.5 988.167,631.5 1047.5,631.5C 1047.5,722.167 1047.5,812.833 1047.5,903.5C 1048.79,903.737 1049.79,903.404 1050.5,902.5C 1077.66,898.392 1102.99,889.226 1126.5,875C 1169.54,846.964 1205.7,811.798 1235,769.5C 1264.14,727.376 1285.64,681.543 1299.5,632C 1358.17,631.167 1416.84,631.333 1475.5,632.5C 1457.4,725.685 1417.24,807.685 1355,878.5C 1322.29,915.879 1285.12,947.712 1243.5,974C 1341.95,1026.11 1417.45,1101.28 1470,1199.5C 1489.84,1237.34 1505.34,1276.84 1516.5,1318C 1451.83,1318.5 1387.17,1318.67 1322.5,1318.5C 1300.42,1244.79 1259.75,1183.63 1200.5,1135C 1155.68,1100.43 1105.01,1079.93 1048.5,1073.5C 1047.5,1155 1047.17,1236.66 1047.5,1318.5C 1033.5,1318.5 1019.5,1318.5 1005.5,1318.5C 900.273,1317.53 802.273,1290.7 711.5,1238C 629.355,1186.86 565.522,1118.69 520,1033.5C 478.637,953.714 451.303,869.38 438,780.5C 431.057,731.071 426.89,681.404 425.5,631.5C 487.833,631.5 550.167,631.5 612.5,631.5C 612.809,699.973 621.642,767.307 639,833.5C 655.414,895.986 682.747,952.986 721,1004.5C 746.474,1037.28 776.974,1064.11 812.5,1085C 830.193,1095.02 848.859,1102.52 868.5,1107.5 Z"/></g>
<g><path style="opacity:1" fill="#6ac1ff" d="M 1047.5,631.5 C 988.167,631.5 928.833,631.5 869.5,631.5C 869.833,790.334 869.5,949.001 868.5,1107.5C 868.5,948.5 868.5,789.5 868.5,630.5C 928.336,630.168 988.002,630.501 1047.5,631.5 Z"/></g>
<g><path style="opacity:1" fill="#3db4ff" d="M 1047.5,631.5 C 1047.83,722.005 1048.83,812.338 1050.5,902.5C 1049.79,903.404 1048.79,903.737 1047.5,903.5C 1047.5,812.833 1047.5,722.167 1047.5,631.5 Z"/></g>
<g><path style="opacity:1" fill="#56baff" d="M 1048.5,1073.5 C 1048.5,1155.5 1048.5,1237.5 1048.5,1319.5C 1033.99,1319.83 1019.66,1319.5 1005.5,1318.5C 1019.5,1318.5 1033.5,1318.5 1047.5,1318.5C 1047.17,1236.66 1047.5,1155 1048.5,1073.5 Z"/></g>
</svg>
