<?xml version="1.0" encoding="UTF-8"?>
<!DOCTYPE svg PUBLIC "-//W3C//DTD SVG 1.1//EN" "http://www.w3.org/Graphics/SVG/1.1/DTD/svg11.dtd">
<svg xmlns="http://www.w3.org/2000/svg" version="1.1" width="1930px" height="1950px" style="shape-rendering:geometricPrecision; text-rendering:geometricPrecision; image-rendering:optimizeQuality; fill-rule:evenodd; clip-rule:evenodd" xmlns:xlink="http://www.w3.org/1999/xlink">
<g><path style="opacity:1" fill="#00b348" d="M 373.5,174.5 C 767.833,174.333 1162.17,174.5 1556.5,175C 1633.51,181.901 1692.68,217.734 1734,282.5C 1752.39,313.664 1762.72,347.331 1765,383.5C 1765.67,777.833 1765.67,1172.17 1765,1566.5C 1758.1,1643.51 1722.27,1702.68 1657.5,1744C 1626.34,1762.39 1592.67,1772.72 1556.5,1775C 1162.17,1775.67 767.833,1775.67 373.5,1775C 296.485,1768.1 237.319,1732.27 196,1667.5C 177.613,1636.34 167.279,1602.67 165,1566.5C 164.007,1168.15 164.34,769.819 166,371.5C 175.33,303.299 208.163,249.799 264.5,211C 297.855,189.715 334.189,177.548 373.5,174.5 Z"/></g>
<g><path style="opacity:1" fill="#fefefe" d="M 981.5,381.5 C 1019.74,379.857 1057.74,382.024 1095.5,388C 1145.58,397.694 1194.24,412.028 1241.5,431C 1260.83,441.667 1280.17,452.333 1299.5,463C 1319.83,478 1340.17,493 1360.5,508C 1375.27,521.105 1389.77,534.605 1404,548.5C 1445.24,593.998 1479.24,644.332 1506,699.5C 1509.42,710.114 1513.42,720.447 1518,730.5C 1531.01,773.876 1541.35,817.876 1549,862.5C 1550.99,900.167 1550.99,937.834 1549,975.5C 1541.52,1019.43 1531.52,1062.77 1519,1105.5C 1507.31,1135.23 1493.64,1164.23 1478,1192.5C 1466,1209.83 1454,1227.17 1442,1244.5C 1419.96,1272.55 1395.79,1298.71 1369.5,1323C 1350.91,1336.78 1332.58,1350.78 1314.5,1365C 1289.7,1381.73 1263.7,1396.4 1236.5,1409C 1219.16,1415.67 1201.82,1422.34 1184.5,1429C 1134.93,1443.72 1084.26,1452.72 1032.5,1456C 987.882,1457.72 943.882,1453.38 900.5,1443C 884.137,1439.16 867.804,1435.16 851.5,1431C 833.875,1423.97 816.042,1417.47 798,1411.5C 775.13,1416.84 752.63,1423.34 730.5,1431C 696.43,1438.93 662.763,1448.27 629.5,1459C 598.88,1466.59 568.38,1474.42 538,1482.5C 526.187,1479.59 514.354,1476.76 502.5,1474C 495.833,1469.33 489.167,1464.67 482.5,1460C 476.637,1453.1 471.137,1445.94 466,1438.5C 462.78,1425.34 459.613,1412.18 456.5,1399C 463.342,1360.13 473.842,1322.3 488,1285.5C 494.314,1264.91 500.314,1244.24 506,1223.5C 514.964,1200.15 522.464,1176.31 528.5,1152C 521.071,1131.72 513.238,1111.55 505,1091.5C 494.297,1053.02 485.964,1014.02 480,974.5C 475.142,934.456 475.475,894.456 481,854.5C 487.432,816.769 495.765,779.436 506,742.5C 540.383,646.616 596.883,566.283 675.5,501.5C 693.677,488.578 711.677,475.411 729.5,462C 748.025,452.24 766.358,442.24 784.5,432C 847.882,405.905 913.549,389.072 981.5,381.5 Z"/></g>
<g><path style="opacity:1" fill="#01b348" d="M 1305.5,601.5 C 1313.83,610.5 1322.5,619.167 1331.5,627.5C 1416.76,724.033 1453.59,837.033 1442,966.5C 1426.07,1091.24 1368.24,1191.4 1268.5,1267C 1155.83,1345.64 1032.5,1367.97 898.5,1334C 878.317,1328.41 858.65,1321.41 839.5,1313C 829.373,1308.44 819.373,1303.6 809.5,1298.5C 739.568,1318.31 669.568,1337.81 599.5,1357C 591.948,1359.11 584.281,1360.61 576.5,1361.5C 576.73,1355.64 577.897,1349.98 580,1344.5C 601.599,1276.54 623.099,1208.54 644.5,1140.5C 592.566,1050.8 574.066,954.463 589,851.5C 609.999,729.394 670.833,633.06 771.5,562.5C 876.541,494.33 990.541,473.496 1113.5,500C 1186.15,517.819 1250.15,551.652 1305.5,601.5 Z"/></g>
<g><path style="opacity:1" fill="#b5e2bb" d="M 1305.5,601.5 C 1314.41,608.907 1322.91,616.907 1331,625.5C 1331.46,626.094 1331.63,626.761 1331.5,627.5C 1322.5,619.167 1313.83,610.5 1305.5,601.5 Z"/></g>
<g><path style="opacity:1" fill="#fefefe" d="M 849.5,709.5 C 862.885,709.097 876.218,709.597 889.5,711C 900.865,716.217 908.698,724.717 913,736.5C 923.931,763.95 935.265,791.283 947,818.5C 951.222,830.166 949.889,841.166 943,851.5C 934.773,864.597 925.107,876.597 914,887.5C 913.333,889.5 913.333,891.5 914,893.5C 947.784,952.993 996.617,995.159 1060.5,1020C 1063.67,1020.98 1066.5,1020.48 1069,1018.5C 1080.48,1004.86 1091.48,990.863 1102,976.5C 1107.63,969.19 1114.96,964.857 1124,963.5C 1132.75,965.528 1141.25,968.362 1149.5,972C 1176.91,985.004 1204.24,998.004 1231.5,1011C 1243.06,1020.94 1246.89,1033.44 1243,1048.5C 1241.34,1069.49 1233.84,1087.99 1220.5,1104C 1204.07,1118.89 1185.4,1130.22 1164.5,1138C 1138.17,1145.33 1111.83,1145.33 1085.5,1138C 1045.13,1126.31 1006.79,1109.98 970.5,1089C 916.473,1052.31 870.306,1007.47 832,954.5C 820.575,938.39 809.909,921.724 800,904.5C 783.773,874.452 776.773,842.452 779,808.5C 784.77,770.095 802.936,739.261 833.5,716C 838.893,713.709 844.226,711.543 849.5,709.5 Z"/></g>
</svg>
