<?xml version="1.0" encoding="UTF-8"?>
<!DOCTYPE svg PUBLIC "-//W3C//DTD SVG 1.1//EN" "http://www.w3.org/Graphics/SVG/1.1/DTD/svg11.dtd">
<svg xmlns="http://www.w3.org/2000/svg" version="1.1" width="1930px" height="1950px" style="shape-rendering:geometricPrecision; text-rendering:geometricPrecision; image-rendering:optimizeQuality; fill-rule:evenodd; clip-rule:evenodd" xmlns:xlink="http://www.w3.org/1999/xlink">
<g><path style="opacity:1" fill="#000000" d="M 373.5,174.5 C 767.833,174.333 1162.17,174.5 1556.5,175C 1633.51,181.901 1692.68,217.734 1734,282.5C 1752.39,313.664 1762.72,347.331 1765,383.5C 1765.67,777.833 1765.67,1172.17 1765,1566.5C 1758.1,1643.51 1722.27,1702.68 1657.5,1744C 1626.34,1762.39 1592.67,1772.72 1556.5,1775C 1162.17,1775.67 767.833,1775.67 373.5,1775C 296.485,1768.1 237.319,1732.27 196,1667.5C 177.613,1636.34 167.279,1602.67 165,1566.5C 164.007,1168.15 164.34,769.819 166,371.5C 175.33,303.299 208.163,249.799 264.5,211C 297.855,189.715 334.189,177.548 373.5,174.5 Z"/></g>
<g><path style="opacity:1" fill="#a0a0a0" d="M 736.5,408.5 C 623.999,408.167 511.665,408.5 399.5,409.5C 398.957,409.44 398.624,409.107 398.5,408.5C 511.333,407.168 623.999,407.168 736.5,408.5 Z"/></g>
<g><path style="opacity:1" fill="#fefefe" d="M 1531.5,1540.5 C 1419.33,1541.5 1307,1541.83 1194.5,1541.5C 1091.74,1394.98 988.743,1248.65 885.5,1102.5C 756.627,1249.05 627.627,1395.55 498.5,1542C 465.167,1542.67 431.833,1542.67 398.5,1542C 545,1375.5 691.5,1209 838,1042.5C 838.85,1040.99 839.683,1039.49 840.5,1038C 693.619,828.4 546.619,618.9 399.5,409.5C 511.665,408.5 623.999,408.167 736.5,408.5C 834.137,546.987 931.637,685.654 1029,824.5C 1151.17,685.667 1273.33,546.833 1395.5,408C 1428.83,407.333 1462.17,407.333 1495.5,408C 1354.83,568 1214.17,728 1073.5,888C 1226.39,1105.38 1379.05,1322.88 1531.5,1540.5 Z"/></g>
<g><path style="opacity:1" fill="#1a1a1a" d="M 688.5,482.5 C 637.664,482.168 586.997,482.501 536.5,483.5C 535.711,483.217 535.044,482.717 534.5,482C 586.002,481.168 637.335,481.335 688.5,482.5 Z"/></g>
<g><path style="opacity:1" fill="#000000" d="M 688.5,482.5 C 924.189,811.531 1159.52,1140.86 1394.5,1470.5C 1343.67,1471.5 1292.67,1471.83 1241.5,1471.5C 1006.5,1142.17 771.5,812.833 536.5,483.5C 586.997,482.501 637.664,482.168 688.5,482.5 Z"/></g>
<g><path style="opacity:1" fill="#d0d0d0" d="M 1394.5,1470.5 C 1395.04,1470.56 1395.38,1470.89 1395.5,1471.5C 1344,1472.83 1292.67,1472.83 1241.5,1471.5C 1292.67,1471.83 1343.67,1471.5 1394.5,1470.5 Z"/></g>
<g><path style="opacity:1" fill="#a0a0a0" d="M 1531.5,1540.5 C 1532.04,1540.56 1532.38,1540.89 1532.5,1541.5C 1419.67,1542.83 1307,1542.83 1194.5,1541.5C 1307,1541.83 1419.33,1541.5 1531.5,1540.5 Z"/></g>
</svg>
