<svg width="40" height="40" viewBox="0 0 40 40" fill="none" xmlns="http://www.w3.org/2000/svg">
<rect width="40" height="40" rx="20" fill="#FF5533"/>
<path d="M14.9408 17.2063C15.02 17.1365 15.0595 17.1016 15.0658 17.0675C15.0712 17.0377 15.0629 17.0072 15.0432 16.9843C15.0205 16.958 14.9696 16.9481 14.8677 16.9283C13.6796 16.697 12.4496 16.5614 11.3706 16.5501C11.3189 16.5496 11.293 16.5493 11.2729 16.5396C11.255 16.531 11.2405 16.5176 11.2303 16.5006C11.2189 16.4814 11.2165 16.4559 11.2115 16.4048L10.8115 12.2911C10.8065 12.24 10.804 12.2145 10.8116 12.1933C10.8184 12.1747 10.8305 12.1584 10.8465 12.1467C10.8646 12.1333 10.8898 12.1285 10.94 12.1187C16.967 10.9527 22.9659 10.8929 29.0832 12.121C29.1333 12.1311 29.1583 12.1361 29.1764 12.1495C29.1922 12.1613 29.2043 12.1776 29.2109 12.1962C29.2184 12.2174 29.2158 12.2428 29.2107 12.2937L28.7956 16.4054C28.7905 16.4563 28.7879 16.4817 28.7765 16.5008C28.7664 16.5178 28.7518 16.5311 28.734 16.5397C28.714 16.5493 28.6882 16.5496 28.6366 16.5501C27.5575 16.5614 26.3272 16.697 25.1389 16.9283C25.0371 16.9481 24.9861 16.958 24.9635 16.9843C24.9438 17.0072 24.9355 17.0377 24.9409 17.0675C24.9471 17.1016 24.9867 17.1365 25.0659 17.2063C27.929 19.7303 29.9539 23.0558 29.9994 27.7276C29.9999 27.7837 30.0002 27.8118 29.9894 27.8334C29.9799 27.8523 29.9644 27.8679 29.9456 27.8776C29.9241 27.8886 29.8961 27.8886 29.8402 27.8886H25.7157C25.6597 27.8886 25.6317 27.8886 25.6104 27.8779C25.5916 27.8684 25.5766 27.8536 25.5668 27.8348C25.5558 27.8138 25.5554 27.785 25.5546 27.7276C25.5011 23.8281 23.4985 21.2285 20.0906 19.0031C20.0591 18.9826 20.0433 18.9723 20.0263 18.9683C20.0113 18.9647 19.9954 18.9647 19.9804 18.9683C19.9633 18.9723 19.9476 18.9826 19.9161 19.0031C16.5082 21.2285 14.5055 23.8281 14.4521 27.7276C14.4513 27.785 14.4509 27.8138 14.4399 27.8348C14.4301 27.8536 14.4151 27.8684 14.3962 27.8779C14.375 27.8886 14.347 27.8886 14.291 27.8886H10.1665C10.1105 27.8886 10.0825 27.8886 10.061 27.8776C10.0423 27.8679 10.0268 27.8523 10.0173 27.8334C10.0065 27.8118 10.0067 27.7837 10.0073 27.7276C10.0528 23.0558 12.0777 19.7303 14.9408 17.2063Z" fill="white"/>
</svg>
